<svg xmlns="http://www.w3.org/2000/svg" viewBox="0 0 542.32 262.32"><defs><style>.cls-1{fill:#4670b6;}</style></defs><g id="Capa_2" data-name="Capa 2"><g id="Capa_1-2" data-name="Capa 1"><path class="cls-1" d="M523.33.73c-79.63-1.07-159.5-2.15-238.83,6-19.3,2-38.84,4-57.88,7.81a95,95,0,0,0-24.79,8.15c-7.57,3.84-14.23,9.34-20.55,15-6,5.32-11.69,11.07-18.23,15.72a85.3,85.3,0,0,1-23.32,11.29c-16.7,5.46-33.8,9.16-50.2,15.62A280.05,280.05,0,0,0,40.84,105c-14.29,9.17-29.39,19.6-36.31,35.73-14,32.72,6.55,66.55,34.24,83.9,31.3,19.61,70.78,23.18,106.57,27.86a1169.58,1169.58,0,0,0,119.13,9.4c80.35,2.23,160.5-6,240.84-5q14.9.18,29.78.84c9.65.43,9.63-14.57,0-15-77.51-3.43-154.88,4.25-232.36,4.64q-57.35.28-114.54-5.05-28.27-2.64-56.38-6.66c-18-2.6-36.25-5.23-53.8-10.3-28.41-8.21-61.62-27.45-62.86-60.78-.63-16.87,8.51-29.11,21.66-38.7A261.23,261.23,0,0,1,82.14,99.59C97.75,92.46,114,87.51,130.5,83c16.16-4.41,31.58-9.8,44.88-20.27,12.45-9.79,22.86-22.73,37.84-28.85,16.09-6.56,34.67-7.86,51.75-10,76.21-9.35,153.16-9.46,229.82-8.55l28.54.36c9.65.14,9.66-14.86,0-15Z"/><path class="cls-1" d="M154.2,82.37c16.5,6.39,33.47,11.79,51.21,13.27A91.71,91.71,0,0,0,232.26,94c7.18-1.55,14.86-4,19.73-9.87,11.6-13.91-1-31.53-15.77-35.49-8.36-2.23-17-1.24-25.51-1.23a116,116,0,0,1-27.89-3.47c-9.38-2.32-13.37,12.14-4,14.46,14.45,3.57,28.48,3.81,43.25,3.73,5.6,0,12.72.18,16.92,4.52,3.63,3.75,2.89,8-1.74,10.18-11.46,5.49-26.59,4.94-38.81,3C184.6,77.55,171.23,73,158.18,67.91c-3.8-1.47-8.19,1.62-9.22,5.24-1.21,4.22,1.48,7.77,5.24,9.22Z"/></g></g></svg>