<svg id="Capa_1" data-name="Capa 1" xmlns="http://www.w3.org/2000/svg" viewBox="0 0 396.42 347.05"><defs><style>.cls-1{fill:#4671b6;}.cls-2,.cls-8{fill:#1d1d1b;}.cls-3,.cls-4,.cls-5,.cls-6{fill:#fff;}.cls-10,.cls-11,.cls-3,.cls-8,.cls-9{stroke:#1d1d1b;}.cls-10,.cls-11,.cls-3,.cls-5,.cls-6,.cls-8,.cls-9{stroke-miterlimit:10;}.cls-5{stroke:#000;}.cls-6{stroke:#020202;}.cls-7{fill:#a6a5a5;}.cls-9{fill:#fafafa;}.cls-11{fill:none;}</style></defs><g id="Capa_2" data-name="Capa 2"><g id="Capa_1-2" data-name="Capa 1-2"><path class="cls-1" d="M32.52,321.52l16-.2q11.84-.15,23.68-.2c-.16-2.78-.11-5.6-.16-8.39-13.18,0-26.37.22-39.54.39v0C27.1,313.18,27.1,321.6,32.52,321.52Z" transform="translate(-21.86 -130.42)"/><path class="cls-1" d="M323.72,391.7c-3.88-9.05-12.36-14.9-20.38-20.05A156.56,156.56,0,0,0,276,357.8c-9.21-3.63-18.8-5.71-28.18-8.77a47.76,47.76,0,0,1-13.09-6.34c-3.67-2.61-6.86-5.84-10.23-8.82A54.82,54.82,0,0,0,213,325.45a53.39,53.39,0,0,0-13.92-4.58c-10.69-2.13-21.65-3.26-32.49-4.38-25.06-2.57-50.22-3.49-75.4-3.7,0,.14-.08.29-.11.44a16.32,16.32,0,0,1,0,5.49c-.15.84-.36,1.65-.56,2.45,29.09.23,58.16,1.4,87.05,4.95,9.58,1.2,20,1.93,29,5.61,8.41,3.44,14.25,10.7,21.24,16.19,7.47,5.88,16.12,8.91,25.19,11.38a177.14,177.14,0,0,1,27.15,9.31,146.94,146.94,0,0,1,25.44,14.76c7.38,5.38,12.51,12.25,12.16,21.72-.7,18.71-19.34,29.51-35.28,34.12-9.86,2.84-20.1,4.32-30.2,5.78q-15.78,2.25-31.65,3.74-32.1,3-64.29,2.83c-43.49-.22-86.92-4.53-130.42-2.6-5.41.24-5.42,8.66,0,8.42s11.14-.41,16.71-.48c45.1-.56,90.09,4.06,135.19,2.81a656,656,0,0,0,66.86-5.28c20.09-2.62,42.25-4.63,59.82-15.63C320,429.06,331.58,410.07,323.72,391.7Z" transform="translate(-21.86 -130.42)"/><path class="cls-1" d="M242.65,353.77c-.58-2-3-3.76-5.17-2.94a113.22,113.22,0,0,1-22.6,6.69c-6.86,1.09-15.35,1.4-21.79-1.68-2.59-1.23-3-3.61-1-5.72,2.36-2.43,6.35-2.53,9.5-2.53,8.29,0,16.16-.09,24.27-2.1,5.26-1.3,3-9.42-2.24-8.11A65.08,65.08,0,0,1,208,339.32c-4.77,0-9.62-.56-14.32.7-8.29,2.22-15.36,12.11-8.85,19.92,2.73,3.29,7.05,4.67,11.08,5.54a51.87,51.87,0,0,0,15.07.92c9.95-.83,19.48-3.87,28.74-7.45C241.82,358.13,243.33,356.14,242.65,353.77Z" transform="translate(-21.86 -130.42)"/></g></g><path class="cls-2" d="M300.69,401.9a4,4,0,0,1-.28,1.54,3.21,3.21,0,0,1-.8,1.17,3.55,3.55,0,0,1-1.29.74,5.39,5.39,0,0,1-1.81.27h-1.29v4.09a.28.28,0,0,1,0,.13.32.32,0,0,1-.13.08.9.9,0,0,1-.22.05,1.9,1.9,0,0,1-.37,0,1.73,1.73,0,0,1-.36,0,1.11,1.11,0,0,1-.24-.05.23.23,0,0,1-.12-.08.28.28,0,0,1,0-.13V399.22a.62.62,0,0,1,.18-.5.63.63,0,0,1,.41-.15h2.44c.24,0,.48,0,.71,0s.49.07.79.13a3.26,3.26,0,0,1,.95.38,2.85,2.85,0,0,1,1.32,1.62A3.59,3.59,0,0,1,300.69,401.9Zm-1.59.12a2.4,2.4,0,0,0-.26-1.16,1.72,1.72,0,0,0-.64-.69,2.16,2.16,0,0,0-.79-.29,5.49,5.49,0,0,0-.8-.06h-1.39v4.56h1.36a3.1,3.1,0,0,0,1.14-.18,2.19,2.19,0,0,0,.76-.48,2.05,2.05,0,0,0,.46-.75A2.67,2.67,0,0,0,299.1,402Z" transform="translate(-21.86 -130.42)"/><path class="cls-2" d="M307.06,409.14a2.09,2.09,0,0,1,0,.41.5.5,0,0,1-.1.22.85.85,0,0,1-.22.13,2,2,0,0,1-.32.1l-.38.07-.4,0a3,3,0,0,1-1.06-.16,1.74,1.74,0,0,1-.72-.49,2.07,2.07,0,0,1-.41-.84,5.13,5.13,0,0,1-.12-1.19v-4.62h-1.11a.24.24,0,0,1-.21-.14.92.92,0,0,1-.08-.46,1.19,1.19,0,0,1,0-.28.47.47,0,0,1,.06-.19.24.24,0,0,1,.09-.11.28.28,0,0,1,.13,0h1.1V399.7a.14.14,0,0,1,0-.11.17.17,0,0,1,.11-.09.64.64,0,0,1,.22-.06l.36,0,.36,0a.64.64,0,0,1,.22.06.2.2,0,0,1,.11.09.21.21,0,0,1,0,.11v1.88h2a.27.27,0,0,1,.12,0,.33.33,0,0,1,.09.11.47.47,0,0,1,.06.19,2.16,2.16,0,0,1,0,.28,1.05,1.05,0,0,1-.08.46.26.26,0,0,1-.21.14h-2v4.41a2.47,2.47,0,0,0,.24,1.23.91.91,0,0,0,.86.42,1.28,1.28,0,0,0,.36,0,1.58,1.58,0,0,0,.28-.08l.22-.08a.31.31,0,0,1,.15,0,.15.15,0,0,1,.09,0,.18.18,0,0,1,.06.08,1.46,1.46,0,0,1,0,.17A1.84,1.84,0,0,1,307.06,409.14Z" transform="translate(-21.86 -130.42)"/><path class="cls-2" d="M83.31,469.27A3.94,3.94,0,0,1,83,470.8a3.09,3.09,0,0,1-.8,1.17,3.61,3.61,0,0,1-1.28.75,5.51,5.51,0,0,1-1.82.26H77.84v4.1a.16.16,0,0,1,0,.12.27.27,0,0,1-.12.09l-.23,0-.37,0-.36,0-.23,0a.25.25,0,0,1-.13-.09.21.21,0,0,1,0-.12V466.59a.63.63,0,0,1,.18-.51.71.71,0,0,1,.42-.14h2.43c.25,0,.48,0,.71,0a6.23,6.23,0,0,1,.8.13,3.2,3.2,0,0,1,.94.38,2.82,2.82,0,0,1,.81.68,3,3,0,0,1,.51.93A3.7,3.7,0,0,1,83.31,469.27Zm-1.59.12a2.29,2.29,0,0,0-.26-1.16,1.72,1.72,0,0,0-.64-.69,2,2,0,0,0-.79-.29,4.37,4.37,0,0,0-.79-.07h-1.4v4.57H79.2a3.1,3.1,0,0,0,1.14-.18,2.12,2.12,0,0,0,.76-.49,2.08,2.08,0,0,0,.47-.75A2.85,2.85,0,0,0,81.72,469.39Z" transform="translate(-21.86 -130.42)"/><path class="cls-2" d="M90.14,474.94a2.51,2.51,0,0,1-.22,1.08,2.25,2.25,0,0,1-.64.8,2.91,2.91,0,0,1-1,.49,4.52,4.52,0,0,1-1.26.17,5.07,5.07,0,0,1-.8-.07,3.87,3.87,0,0,1-.69-.17A2.45,2.45,0,0,1,85,477a1.28,1.28,0,0,1-.31-.2.51.51,0,0,1-.14-.24,1.69,1.69,0,0,1,0-.43,2.27,2.27,0,0,1,0-.28.74.74,0,0,1,0-.19.15.15,0,0,1,.07-.1.2.2,0,0,1,.11,0,.63.63,0,0,1,.29.12c.12.08.28.16.46.26a5.35,5.35,0,0,0,.66.26,2.86,2.86,0,0,0,.87.12,2.8,2.8,0,0,0,.67-.08,1.51,1.51,0,0,0,.51-.24,1,1,0,0,0,.34-.39,1.22,1.22,0,0,0,.12-.56.93.93,0,0,0-.17-.56,1.62,1.62,0,0,0-.45-.41,4.24,4.24,0,0,0-.64-.31l-.72-.28c-.25-.1-.49-.22-.73-.34a3,3,0,0,1-.64-.46,2.05,2.05,0,0,1-.62-1.56,2.25,2.25,0,0,1,.18-.89,2.08,2.08,0,0,1,.54-.75,2.79,2.79,0,0,1,.9-.51,3.7,3.7,0,0,1,1.26-.2,3.36,3.36,0,0,1,.63.06,3.86,3.86,0,0,1,.58.13,2.57,2.57,0,0,1,.43.17,1.47,1.47,0,0,1,.27.16.52.52,0,0,1,.13.12.56.56,0,0,1,0,.12s0,.1,0,.17a1.55,1.55,0,0,1,0,.23,2,2,0,0,1,0,.26.56.56,0,0,1,0,.18.2.2,0,0,1-.07.1.17.17,0,0,1-.1,0,.52.52,0,0,1-.23-.09,4,4,0,0,0-.38-.21l-.56-.21a2.78,2.78,0,0,0-.74-.09A2.57,2.57,0,0,0,87,470a1.43,1.43,0,0,0-.46.24,1,1,0,0,0-.27.36,1.18,1.18,0,0,0-.09.46,1,1,0,0,0,.17.58,1.85,1.85,0,0,0,.46.41,4.24,4.24,0,0,0,.64.31l.74.29a8,8,0,0,1,.73.34,2.75,2.75,0,0,1,.65.44,2,2,0,0,1,.45.64A2,2,0,0,1,90.14,474.94Z" transform="translate(-21.86 -130.42)"/><rect class="cls-2" x="52.95" y="33.44" width="12.82" height="276.64"/><rect class="cls-2" x="108.49" y="130.19" width="12.82" height="80.16" transform="translate(-77.24 154.75) rotate(-90)"/><rect class="cls-3" x="352.88" y="75.32" width="12.82" height="199.85"/><rect class="cls-3" x="355.16" y="373.57" width="12.82" height="52" transform="translate(739.27 -92.43) rotate(90)"/><path class="cls-4" d="M377.72,395.66c3.21,0,3.22-5,0-5s-3.23,5,0,5Z" transform="translate(-21.86 -130.42)"/><path class="cls-4" d="M378.89,395.85l5.65-.08a2.59,2.59,0,0,0,1.77-.73,2.51,2.51,0,0,0,0-3.54,2.61,2.61,0,0,0-1.77-.73l-5.65.08a2.61,2.61,0,0,0-1.77.73,2.5,2.5,0,0,0,0,3.53,2.58,2.58,0,0,0,1.77.74Z" transform="translate(-21.86 -130.42)"/><path class="cls-4" d="M384.54,395.36c3.22,0,3.22-5,0-5s-3.22,5,0,5Z" transform="translate(-21.86 -130.42)"/><path class="cls-4" d="M382,392.86v.24a2,2,0,0,0,.21,1,2.05,2.05,0,0,0,.52.81,1.93,1.93,0,0,0,.81.51,1.86,1.86,0,0,0,1,.22l.66-.09a2.48,2.48,0,0,0,1.11-.64l.39-.51a2.53,2.53,0,0,0,.34-1.26v-.24a1.88,1.88,0,0,0-.22-1,1.83,1.83,0,0,0-.51-.8,1.85,1.85,0,0,0-.81-.52,1.88,1.88,0,0,0-1-.22l-.67.09a2.52,2.52,0,0,0-1.1.65l-.39.5a2.43,2.43,0,0,0-.34,1.26Z" transform="translate(-21.86 -130.42)"/><path class="cls-4" d="M375.37,392.45l0,.24,1.24-2.16h0l.59-.26h0l.66-.09h0l.66.09h0l.6.26h0a2,2,0,0,0-.93-.3,1.89,1.89,0,0,0-1,0,1.83,1.83,0,0,0-.85.44,1.91,1.91,0,0,0-.64.71l-.25.59a2.5,2.5,0,0,0,0,1.33l.25.6a2.59,2.59,0,0,0,.9.9h0l.6.25h0l.67.09h0l.67-.09h0l.3-.13.31-.13a2.48,2.48,0,0,0,.89-.9,2.43,2.43,0,0,0,.34-1.26l0-.24a1.88,1.88,0,0,0-.22-1,2.3,2.3,0,0,0-1.32-1.32,1.88,1.88,0,0,0-1-.22l-.67.09a2.52,2.52,0,0,0-1.1.65l-.39.5a2.43,2.43,0,0,0-.34,1.26Z" transform="translate(-21.86 -130.42)"/><path class="cls-4" d="M377.77,396.48c3.22,0,3.23-5,0-5s-3.22,5,0,5Z" transform="translate(-21.86 -130.42)"/><path class="cls-4" d="M375.62,395.18l.06.14.39.51a1.92,1.92,0,0,0,.8.52,1.29,1.29,0,0,0,.63.17,1.89,1.89,0,0,0,1,0l.6-.25.5-.39a1.82,1.82,0,0,0,.52-.8,1.9,1.9,0,0,0,.22-1v-.39l-.09-.67-.25-.6-.39-.5a1.85,1.85,0,0,0-.81-.52,2.5,2.5,0,0,0-1.29-.17,1.3,1.3,0,0,0-.64.17,1.82,1.82,0,0,0-.8.52h0l-.39.51h0l0,0v0c-.05.1-.1.23-.13.31a3.24,3.24,0,0,0-.13.31.14.14,0,0,0,0,.06h0l-.09.67h0v0a1.88,1.88,0,0,0,.22,1,2.3,2.3,0,0,0,1.32,1.32,1.88,1.88,0,0,0,1,.22l.67-.09a2.52,2.52,0,0,0,1.1-.65l.39-.5a2.43,2.43,0,0,0,.34-1.26.08.08,0,0,0,0,0l-.09.66a.19.19,0,0,1,0-.08l-.25.6,0-.08-.39.51h0l-4.27-1.76v.39L380,392.8l-.06-.14a2,2,0,0,0-.65-.7,1.89,1.89,0,0,0-.85-.45,1.85,1.85,0,0,0-1,0,1.79,1.79,0,0,0-.93.29l-.51.39a2.53,2.53,0,0,0-.64,1.11l-.09.66a2.43,2.43,0,0,0,.34,1.26Z" transform="translate(-21.86 -130.42)"/><path class="cls-4" d="M377.3,395.33a5,5,0,0,1,.58,1l-.25-.59a5,5,0,0,1,.32,1.15l-.09-.66s0,.07,0,.11l3.76-2.16-.21-.13.51.39a1.6,1.6,0,0,1-.26-.26l.4.51a.94.94,0,0,1-.12-.18,1.83,1.83,0,0,0-.65-.7,1.8,1.8,0,0,0-.85-.45,1.86,1.86,0,0,0-1-.05,2,2,0,0,0-.93.3L378,394a2.5,2.5,0,0,0-.64,1.1l-.09.67a2.53,2.53,0,0,0,.34,1.26,3.87,3.87,0,0,0,1.48,1.47,2.5,2.5,0,0,0,3.76-2.16,6.93,6.93,0,0,0-.39-1.86,7.33,7.33,0,0,0-.86-1.67,1.93,1.93,0,0,0-.65-.71,1.78,1.78,0,0,0-.85-.44,1.86,1.86,0,0,0-1-.05,1.9,1.9,0,0,0-.93.3l-.51.39a2.5,2.5,0,0,0-.64,1.1l-.09.67a2.43,2.43,0,0,0,.34,1.26Z" transform="translate(-21.86 -130.42)"/><path class="cls-4" d="M375.36,393.19v.2a1.34,1.34,0,0,1,0,.2l.09-.67v0l.25-.59h0l.39-.5h0l.5-.39h0l.6-.25h0l.67-.09h0l.67.09h0l.6.26h0l.51.39h0l.39.5,0,0,.25.6a.08.08,0,0,0,0,0l.09.67v-.06a2,2,0,0,0-.21-1,2.28,2.28,0,0,0-1.33-1.32,1.74,1.74,0,0,0-1-.21l-.66.08a2.55,2.55,0,0,0-1.11.65l-.39.5a2.54,2.54,0,0,0-.34,1.27v0a3.38,3.38,0,0,0,.1.71,2.07,2.07,0,0,0,.27.63,2.46,2.46,0,0,0,.39.51h0l.51.39a2.29,2.29,0,0,0,.62.27h0l.34.05a2.62,2.62,0,0,0,.35,0,2.51,2.51,0,0,0,1.28-.35,2.56,2.56,0,0,0,.91-.91,2.45,2.45,0,0,0,.35-1.29s0,0,0,0v-.35a1.83,1.83,0,0,0-.21-1,2,2,0,0,0-.52-.81,1.92,1.92,0,0,0-.8-.52,2,2,0,0,0-1-.21l-.66.09a2.53,2.53,0,0,0-1.11.64l-.39.51a2.53,2.53,0,0,0-.34,1.26Z" transform="translate(-21.86 -130.42)"/><path class="cls-4" d="M333.31,394.84c-.13.24-.23.52-.33.76a.87.87,0,0,0-.07.17,1.63,1.63,0,0,0-.08.37,1.89,1.89,0,0,0-.05,1,2.26,2.26,0,0,0,.94,1.63,1.94,1.94,0,0,0,.85.45l.67.08a2.43,2.43,0,0,0,1.26-.34l.51-.39a2.5,2.5,0,0,0,.64-1.1,2,2,0,0,1,.15-.54l-.25.59.07-.16a1.77,1.77,0,0,0,.3-.93,2.21,2.21,0,0,0-.49-1.85,2,2,0,0,0-.7-.64l-.6-.25a2.5,2.5,0,0,0-1.33,0l-.6.25a2.48,2.48,0,0,0-.89.9Z" transform="translate(-21.86 -130.42)"/><path class="cls-4" d="M333,398.84l.06,1.54a1.78,1.78,0,0,0,.21,1,1.85,1.85,0,0,0,.52.81,1.83,1.83,0,0,0,.8.51,1.9,1.9,0,0,0,1,.22l.66-.09a2.5,2.5,0,0,0,1.1-.64l.39-.51a2.54,2.54,0,0,0,.35-1.26l-.06-1.54a1.9,1.9,0,0,0-.22-1,2.54,2.54,0,0,0-2.28-1.53l-.67.08a2.52,2.52,0,0,0-1.1.65l-.39.5a2.44,2.44,0,0,0-.34,1.27Z" transform="translate(-21.86 -130.42)"/><path class="cls-4" d="M335.64,405.44c3.22,0,3.23-5,0-5s-3.22,5,0,5Z" transform="translate(-21.86 -130.42)"/><circle class="cls-2" cx="166.18" cy="37.91" r="37.41"/><circle class="cls-5" cx="358.51" cy="37.91" r="37.41"/><path class="cls-4" d="M379.71,199.3a28.9,28.9,0,0,0-1.85,14.31,2.5,2.5,0,0,0,5,0,92,92,0,0,0,.21-11.74,2.51,2.51,0,0,0-2.17-2.45,2.47,2.47,0,0,0-2.74,1.79l-1.08,5.49,4.57-.59c-.1-.17-.2-.34-.29-.51s-.21-.46-.11-.23-.1-.31-.12-.36-.11-.37-.15-.56-.11-.52-.06-.24,0-.3,0-.37a9,9,0,0,1,0-1.16,2.47,2.47,0,0,0-2.16-2.46A2.5,2.5,0,0,0,376,202a23.83,23.83,0,0,0-.69,5.51h5v-4.4a2.52,2.52,0,0,0-2.5-2.5,2.55,2.55,0,0,0-2.5,2.5v4.4a2.52,2.52,0,0,0,2.5,2.5,2.55,2.55,0,0,0,2.5-2.5,19.89,19.89,0,0,1,.14-2.31c0,.27,0,0,0-.1l.09-.51c.08-.42.17-.84.28-1.26l-4.92-.66a10,10,0,0,0,1.41,5.95,2.51,2.51,0,0,0,2.5,1.19A2.45,2.45,0,0,0,381.9,208l1.08-5.49-4.91-.67a92,92,0,0,1-.21,11.74h5a27.79,27.79,0,0,1,0-6.82c0-.18,0-.16,0,.05,0-.16.05-.32.07-.49s.09-.49.14-.73c.11-.57.24-1.13.38-1.69a27.81,27.81,0,0,1,1.11-3.3,2.51,2.51,0,0,0-1.75-3.07,2.58,2.58,0,0,0-3.08,1.74Z" transform="translate(-21.86 -130.42)"/><path class="cls-4" d="M380.39,200.35a22.91,22.91,0,0,0-.19,8.68l.25.6a2,2,0,0,0,.65.7,2.36,2.36,0,0,0,1.51.53A2.59,2.59,0,0,0,385,209a18.36,18.36,0,0,0,.92-6h-5l.14,3.2a2.5,2.5,0,0,0,4.66,1.27,12.62,12.62,0,0,0,1.59-5.81,2.5,2.5,0,1,0-5,0c0,.34,0,.68-.08,1l.09-.66a10.35,10.35,0,0,1-.71,2.6l.25-.6c-.14.31-.29.62-.45.92l4.65,1.26-.14-3.2a2.5,2.5,0,0,0-5,0,16.75,16.75,0,0,1-.14,2.35l.09-.66a16.94,16.94,0,0,1-.69,3H385l-.06-.42.09.67a21.45,21.45,0,0,1,0-5.43l-.08.67c.06-.51.15-1,.25-1.51a2.64,2.64,0,0,0-.25-1.93,2.5,2.5,0,0,0-4.57.6Z" transform="translate(-21.86 -130.42)"/><polygon class="cls-2" points="59.37 317.17 65.78 310.08 52.95 310.08 59.37 317.17"/><polygon class="cls-6" points="306.29 269.08 313.38 275.17 313.38 262.99 306.29 269.08"/><path class="cls-4" d="M336.72,395.54l-.05,0a4.06,4.06,0,0,0-.7-.09,2.64,2.64,0,0,0-.74.1h0l-.6.25h0a2.82,2.82,0,0,0-.58.45,2.5,2.5,0,0,0-.64,1.1,1.89,1.89,0,0,0,0,1,1.85,1.85,0,0,0,.29.93,2.56,2.56,0,0,0,.9.89,1.37,1.37,0,0,0,.2.13l.1.05.05,0,.65.27.22.07.11,0h.06l.71.1a2.57,2.57,0,0,0,1.27-.34,2,2,0,0,0,.7-.65A1.78,1.78,0,0,0,339,399a2.5,2.5,0,0,0,0-1.33.86.86,0,0,1-.06-.23l.09.67a1.22,1.22,0,0,1,0-.27l-.09.66,0-.14a1.9,1.9,0,0,0,0-1,2,2,0,0,0-.3-.93,1.88,1.88,0,0,0-.64-.7,1.94,1.94,0,0,0-.85-.45l-.67-.09a2.53,2.53,0,0,0-1.26.34l-.5.39a2.55,2.55,0,0,0-.65,1.11,6.5,6.5,0,0,0-.12.82.91.91,0,0,0,0,.17,7.5,7.5,0,0,0,.11.81.84.84,0,0,0,.05.17l2.41-3.16h0l.67.09a1.88,1.88,0,0,1-.45-.12l.6.25a1.9,1.9,0,0,1-.37-.2l.51,3.92,0,0-.51.39.06,0-.59.25.07,0-.67.09H336l-.67-.09.06,0a1.89,1.89,0,0,0,1,0,1.85,1.85,0,0,0,.93-.29,2.87,2.87,0,0,0,1.15-1.5l.09-.66a2.54,2.54,0,0,0-.35-1.26l-.39-.51a2.5,2.5,0,0,0-1.1-.64Z" transform="translate(-21.86 -130.42)"/><path class="cls-4" d="M336.59,399h.12a2,2,0,0,0,1-.21,2,2,0,0,0,.8-.52,2.83,2.83,0,0,0,.74-1.77l-.09-.66a2.5,2.5,0,0,0-.65-1.11l-.5-.39a2.53,2.53,0,0,0-1.26-.34h-.12a1.84,1.84,0,0,0-1,.22,1.93,1.93,0,0,0-.81.51,2,2,0,0,0-.52.81,2,2,0,0,0-.21,1l.09.67a2.5,2.5,0,0,0,.64,1.1l.51.39a2.43,2.43,0,0,0,1.26.34Z" transform="translate(-21.86 -130.42)"/><path class="cls-4" d="M336.88,398.68c3.22,0,3.22-5,0-5s-3.22,5,0,5Z" transform="translate(-21.86 -130.42)"/><path class="cls-4" d="M336.59,398.74c3.22,0,3.22-5,0-5s-3.22,5,0,5Z" transform="translate(-21.86 -130.42)"/><path class="cls-4" d="M334.87,398.73a8.36,8.36,0,0,0-.36.87c0,.1-.05.2-.07.3a4.56,4.56,0,0,0-.1,1.28,1.88,1.88,0,0,0,.21,1,2.3,2.3,0,0,0,1.32,1.32,1.9,1.9,0,0,0,1,.22l.66-.09a2.52,2.52,0,0,0,1.1-.65l.39-.5a2.54,2.54,0,0,0,.35-1.26,2.44,2.44,0,0,1,0-.54l-.09.67a2.26,2.26,0,0,1,.16-.58l-.25.6,0-.08a2,2,0,0,0,.3-.93,1.89,1.89,0,0,0-.05-1,1.85,1.85,0,0,0-.45-.85,1.88,1.88,0,0,0-.7-.64l-.59-.25a2.5,2.5,0,0,0-1.33,0l-.6.25a2.5,2.5,0,0,0-.9.9Z" transform="translate(-21.86 -130.42)"/><path class="cls-4" d="M336.65,405c3.21,0,3.22-5,0-5s-3.23,5,0,5Z" transform="translate(-21.86 -130.42)"/><path class="cls-4" d="M336.65,405.44c3.21,0,3.22-5,0-5s-3.23,5,0,5Z" transform="translate(-21.86 -130.42)"/><path class="cls-4" d="M335.35,392.5c3.22,0,3.23-5,0-5s-3.22,5,0,5Z" transform="translate(-21.86 -130.42)"/><path class="cls-4" d="M335.59,392.68c3.22,0,3.22-5,0-5s-3.22,5,0,5Z" transform="translate(-21.86 -130.42)"/><path class="cls-4" d="M334.71,392.79c3.21,0,3.22-5,0-5s-3.23,5,0,5Z" transform="translate(-21.86 -130.42)"/><path class="cls-4" d="M334.59,411.15c3.22,0,3.22-5,0-5s-3.22,5,0,5Z" transform="translate(-21.86 -130.42)"/><circle class="cls-7" cx="166.18" cy="37.91" r="27.63"/><circle class="cls-7" cx="358.51" cy="37.91" r="27.63"/><line class="cls-8" x1="166.18" y1="75.32" x2="166.18" y2="126.22"/><line class="cls-8" x1="352.88" y1="126.22" x2="166.18" y2="126.22"/><circle class="cls-9" cx="166.73" cy="125.22" r="3.71"/><circle class="cls-9" cx="336.32" cy="126.22" r="3.71"/><circle class="cls-10" cx="166.73" cy="125.22" r="1.85"/><circle class="cls-10" cx="336.32" cy="126.22" r="1.85"/><line class="cls-11" x1="166.18" y1="129.93" x2="166.18" y2="137.75"/><line class="cls-11" x1="162.27" y1="138.75" x2="170.09" y2="138.75"/><line class="cls-11" x1="163.68" y1="140.69" x2="168.68" y2="140.69"/><line class="cls-11" x1="164.68" y1="142.64" x2="167.68" y2="142.64"/><path class="cls-2" d="M273.75,251.82a.21.21,0,0,1,0,.07l-.08.05-.13,0h-.45l-.08,0-.05,0a.08.08,0,0,1,0,0l0-.05-1.65-4.7a.39.39,0,0,1,0-.13s0-.07,0-.08a.23.23,0,0,1,.11,0h.39l.1,0a.1.1,0,0,1,.05,0l0,.07,1.45,4.25h0l1.41-4.25s0-.05,0-.07a.07.07,0,0,1,.05,0l.11,0h.38c.05,0,.08,0,.09,0a.07.07,0,0,1,0,.08.5.5,0,0,1,0,.14Z" transform="translate(-21.86 -130.42)"/><path class="cls-2" d="M279.06,251.66c0,.05,0,.09,0,.13l0,.08a.11.11,0,0,1,0,0,.07.07,0,0,1-.06,0h-2.43a.29.29,0,0,1-.17-.06.26.26,0,0,1-.08-.21v-4.51a.26.26,0,0,1,.08-.21.29.29,0,0,1,.17-.06H279a.1.1,0,0,1,0,0l0,.09s0,.08,0,.13,0,.09,0,.12a.46.46,0,0,1,0,.09.1.1,0,0,1,0,.05h-2V249h1.69l.06,0,0,0,0,.08v.25a.94.94,0,0,1,0,.09l0,0h-1.75v1.81h2l.06,0a.11.11,0,0,1,0,0l0,.08S279.06,251.61,279.06,251.66Z" transform="translate(-21.86 -130.42)"/><path class="cls-2" d="M284,251.66a.32.32,0,0,1,0,.14.47.47,0,0,1-.06.09.31.31,0,0,1-.1.05h-.33a.5.5,0,0,1-.18,0,.37.37,0,0,1-.15-.08,1,1,0,0,1-.14-.15,1.83,1.83,0,0,1-.15-.25l-1.54-2.88c-.08-.14-.17-.3-.25-.46s-.16-.32-.23-.48h0c0,.19,0,.38,0,.58v3.63a.07.07,0,0,1,0,0l-.06,0-.1,0h-.33l-.1,0a.1.1,0,0,1-.05,0,.08.08,0,0,1,0,0v-4.66a.27.27,0,0,1,.09-.23.33.33,0,0,1,.19-.06h.33a.59.59,0,0,1,.2,0,.35.35,0,0,1,.14.06.51.51,0,0,1,.12.13,1.17,1.17,0,0,1,.12.2l1.19,2.22.21.39c.07.13.13.26.2.38l.18.37c.07.12.13.24.19.37h0c0-.21,0-.42,0-.65V247s0,0,0-.05a.07.07,0,0,1,.05,0l.1,0h.33l.1,0a.07.07,0,0,1,.05,0,.08.08,0,0,1,0,.05Z" transform="translate(-21.86 -130.42)"/><path class="cls-2" d="M288.48,247.18a.41.41,0,0,1,0,.12.2.2,0,0,1,0,.09l0,.05-.06,0h-1.42v4.38a.08.08,0,0,1,0,0,.1.1,0,0,1-.05,0l-.11,0h-.32l-.1,0a.09.09,0,0,1-.06,0,.07.07,0,0,1,0,0v-4.38h-1.43l-.05,0a.1.1,0,0,1,0-.05l0-.09a.41.41,0,0,1,0-.12.61.61,0,0,1,0-.14l0-.09a.1.1,0,0,1,0,0h3.63l0,0a.29.29,0,0,1,0,.09A.61.61,0,0,1,288.48,247.18Z" transform="translate(-21.86 -130.42)"/></svg>