<svg xmlns="http://www.w3.org/2000/svg" viewBox="0 0 396.42 367.91"><defs><style>.cls-1{fill:#4671b6;}.cls-2,.cls-7{fill:#1d1d1b;}.cls-3,.cls-4,.cls-5,.cls-6{fill:#fff;}.cls-10,.cls-3,.cls-7,.cls-8,.cls-9{stroke:#1d1d1b;}.cls-10,.cls-3,.cls-5,.cls-6,.cls-7,.cls-8,.cls-9{stroke-miterlimit:10;}.cls-5{stroke:#000;}.cls-6{stroke:#020202;}.cls-8{fill:#fafafa;}.cls-10{fill:none;}</style></defs><g id="Capa_2" data-name="Capa 2"><g id="Capa_1-2" data-name="Capa 1"><g id="Capa_2-2" data-name="Capa 2"><g id="Capa_1-2-2" data-name="Capa 1-2"><path class="cls-1" d="M10.66,215.27l16-.2c7.89-.09,15.78-.17,23.68-.19-.16-2.79-.11-5.6-.16-8.4-13.19,0-26.37.22-39.54.39v0C5.24,206.93,5.24,215.35,10.66,215.27Z" transform="translate(0 -3.31)"/><path class="cls-1" d="M301.86,285.46c-3.89-9.06-12.36-14.91-20.38-20.06a156.56,156.56,0,0,0-27.33-13.85c-9.21-3.63-18.8-5.7-28.18-8.77a47.76,47.76,0,0,1-13.09-6.34c-3.67-2.61-6.86-5.83-10.23-8.82a55.44,55.44,0,0,0-11.53-8.42,53,53,0,0,0-13.92-4.57c-10.69-2.14-21.65-3.27-32.49-4.39-25.06-2.57-50.23-3.49-75.41-3.7,0,.15-.07.29-.1.44a16.32,16.32,0,0,1,0,5.49c-.15.84-.36,1.65-.56,2.45,29.09.23,58.16,1.4,87.05,5,9.58,1.2,20,1.93,29,5.61,8.41,3.44,14.25,10.7,21.24,16.19,7.47,5.88,16.12,8.91,25.19,11.38a177.51,177.51,0,0,1,27.15,9.31,147.32,147.32,0,0,1,25.44,14.76c7.38,5.38,12.51,12.25,12.16,21.72-.7,18.71-19.34,29.51-35.29,34.12-9.85,2.84-20.09,4.32-30.19,5.78q-15.78,2.25-31.65,3.74-32.1,3-64.29,2.83c-43.49-.22-86.92-4.53-130.42-2.6-5.41.24-5.42,8.66,0,8.42q8.36-.37,16.71-.47c45.1-.57,90.09,4,135.19,2.8a658.86,658.86,0,0,0,66.86-5.27c20.09-2.63,42.25-4.63,59.82-15.64C298.18,322.81,309.72,303.82,301.86,285.46Z" transform="translate(0 -3.31)"/><path class="cls-1" d="M220.79,247.52c-.58-2-3-3.76-5.17-2.94a113.22,113.22,0,0,1-22.6,6.69c-6.86,1.09-15.35,1.4-21.79-1.68-2.59-1.22-3-3.61-1-5.72,2.35-2.43,6.35-2.53,9.49-2.53,8.29,0,16.17-.09,24.28-2.1,5.26-1.3,3-9.41-2.24-8.11a65.6,65.6,0,0,1-15.66,2c-4.78,0-9.63-.57-14.32.69-8.29,2.22-15.36,12.11-8.85,19.92,2.73,3.29,7,4.67,11.07,5.54a51.94,51.94,0,0,0,15.08.92c9.95-.83,19.48-3.86,28.74-7.45C220,251.88,221.47,249.89,220.79,247.52Z" transform="translate(0 -3.31)"/></g></g><path class="cls-2" d="M278.83,295.65a4,4,0,0,1-.28,1.54,3.34,3.34,0,0,1-.8,1.17,3.72,3.72,0,0,1-1.29.75,5.67,5.67,0,0,1-1.81.26h-1.29v4.09a.28.28,0,0,1,0,.13.32.32,0,0,1-.13.08.9.9,0,0,1-.22.05,2.3,2.3,0,0,1-.74,0l-.23-.05a.23.23,0,0,1-.12-.08.28.28,0,0,1,0-.13V293a.59.59,0,0,1,.6-.65h2.44c.24,0,.48,0,.7,0a7.72,7.72,0,0,1,.8.13,3.5,3.5,0,0,1,.94.38,3,3,0,0,1,.82.68,2.94,2.94,0,0,1,.51.94A3.59,3.59,0,0,1,278.83,295.65Zm-1.59.12a2.4,2.4,0,0,0-.26-1.16,1.79,1.79,0,0,0-.64-.69,2.23,2.23,0,0,0-.79-.29,5.49,5.49,0,0,0-.8-.06h-1.39v4.56h1.36a3.13,3.13,0,0,0,1.14-.18,2.19,2.19,0,0,0,.76-.48,2.05,2.05,0,0,0,.46-.75A2.67,2.67,0,0,0,277.24,295.77Z" transform="translate(0 -3.31)"/><path class="cls-2" d="M285.19,302.89a2.22,2.22,0,0,1,0,.41.42.42,0,0,1-.11.22.63.63,0,0,1-.21.13,2,2,0,0,1-.32.1l-.38.07-.4,0a3,3,0,0,1-1.06-.16,1.74,1.74,0,0,1-.72-.49,2.07,2.07,0,0,1-.41-.84,5.09,5.09,0,0,1-.13-1.19v-4.62h-1.1a.24.24,0,0,1-.21-.14.92.92,0,0,1-.08-.46,1.19,1.19,0,0,1,0-.28.47.47,0,0,1,.06-.19.18.18,0,0,1,.09-.1.28.28,0,0,1,.13,0h1.09v-1.88a.17.17,0,0,1,0-.11.17.17,0,0,1,.11-.09.58.58,0,0,1,.22-.06l.36,0,.36,0a.64.64,0,0,1,.22.06.2.2,0,0,1,.11.09.23.23,0,0,1,0,.11v1.88h2a.28.28,0,0,1,.13,0,.3.3,0,0,1,.09.1.47.47,0,0,1,.06.19,2.35,2.35,0,0,1,0,.28,1.08,1.08,0,0,1-.07.46.26.26,0,0,1-.22.14h-2V301a2.42,2.42,0,0,0,.25,1.24.92.92,0,0,0,.86.41,1.28,1.28,0,0,0,.36,0,1.58,1.58,0,0,0,.28-.08l.21-.08a.37.37,0,0,1,.16,0l.09,0a.18.18,0,0,1,.06.08,1.46,1.46,0,0,1,0,.17A2,2,0,0,1,285.19,302.89Z" transform="translate(0 -3.31)"/><path class="cls-2" d="M61.45,363a4,4,0,0,1-.28,1.54,3.14,3.14,0,0,1-.8,1.16,3.47,3.47,0,0,1-1.28.75,5.49,5.49,0,0,1-1.82.27H56v4.09a.21.21,0,0,1,0,.12.27.27,0,0,1-.12.09l-.23,0-.37,0-.36,0a.89.89,0,0,1-.23,0,.25.25,0,0,1-.13-.09.21.21,0,0,1,0-.12V360.34a.61.61,0,0,1,.18-.5.63.63,0,0,1,.41-.15H57.5c.25,0,.48,0,.71,0a6.23,6.23,0,0,1,.8.13,3.31,3.31,0,0,1,.94.38,2.82,2.82,0,0,1,.81.68,3,3,0,0,1,.51.93A3.7,3.7,0,0,1,61.45,363Zm-1.59.12A2.29,2.29,0,0,0,59.6,362a1.72,1.72,0,0,0-.64-.69,2,2,0,0,0-.79-.29,5.51,5.51,0,0,0-.79-.07H56v4.57h1.36a3.1,3.1,0,0,0,1.14-.18,2.21,2.21,0,0,0,.76-.49,2.13,2.13,0,0,0,.47-.75A2.81,2.81,0,0,0,59.86,363.14Z" transform="translate(0 -3.31)"/><path class="cls-2" d="M68.28,368.69a2.51,2.51,0,0,1-.22,1.08,2.25,2.25,0,0,1-.64.8,2.91,2.91,0,0,1-1,.49,4.52,4.52,0,0,1-1.26.17,5.07,5.07,0,0,1-.8-.07,3.87,3.87,0,0,1-.69-.17,2.45,2.45,0,0,1-.51-.21,1.28,1.28,0,0,1-.31-.2.44.44,0,0,1-.14-.24,1.63,1.63,0,0,1,0-.43,2,2,0,0,1,0-.28.74.74,0,0,1,0-.19.18.18,0,0,1,.07-.1.2.2,0,0,1,.11,0,.63.63,0,0,1,.29.12c.12.08.28.16.46.26a4.78,4.78,0,0,0,.66.26,2.86,2.86,0,0,0,.87.12,2.8,2.8,0,0,0,.67-.08,1.6,1.6,0,0,0,.51-.24,1,1,0,0,0,.34-.39,1.19,1.19,0,0,0,.12-.56.93.93,0,0,0-.17-.56,2,2,0,0,0-.45-.41,4.24,4.24,0,0,0-.64-.31l-.72-.28c-.25-.1-.49-.22-.73-.34a3,3,0,0,1-.64-.46,2.1,2.1,0,0,1-.45-.65,2.31,2.31,0,0,1-.17-.91,2.25,2.25,0,0,1,.18-.89,2.17,2.17,0,0,1,.54-.75,2.79,2.79,0,0,1,.9-.51,3.7,3.7,0,0,1,1.26-.2,3.36,3.36,0,0,1,.63.06,4,4,0,0,1,.57.13,2.7,2.7,0,0,1,.44.17,2.4,2.4,0,0,1,.27.16.46.46,0,0,1,.12.13.22.22,0,0,1,0,.11s0,.1,0,.17a1.55,1.55,0,0,1,0,.23,2,2,0,0,1,0,.26.56.56,0,0,1-.05.18.3.3,0,0,1-.07.11.17.17,0,0,1-.1,0,.58.58,0,0,1-.23-.1A4,4,0,0,0,67,364a4.48,4.48,0,0,0-.56-.2,2.41,2.41,0,0,0-.74-.1,2.57,2.57,0,0,0-.65.08,1.43,1.43,0,0,0-.46.24,1,1,0,0,0-.27.36,1.22,1.22,0,0,0-.09.46,1,1,0,0,0,.17.58,1.85,1.85,0,0,0,.46.41,4.24,4.24,0,0,0,.64.31l.74.29a8,8,0,0,1,.73.34,2.75,2.75,0,0,1,.65.44,2,2,0,0,1,.45.64A2,2,0,0,1,68.28,368.69Z" transform="translate(0 -3.31)"/><rect class="cls-2" x="52.95" y="54.3" width="12.82" height="276.64"/><rect class="cls-2" x="86.63" y="23.95" width="12.82" height="80.16" transform="translate(29.01 153.75) rotate(-90)"/><rect class="cls-3" x="352.88" y="96.18" width="12.82" height="199.85"/><rect class="cls-3" x="333.3" y="267.32" width="12.82" height="52" transform="translate(633.03 -49.7) rotate(90)"/><path class="cls-4" d="M355.86,289.41c3.21,0,3.22-5,0-5s-3.23,5,0,5Z" transform="translate(0 -3.31)"/><path class="cls-4" d="M357,289.6l5.65-.08a2.61,2.61,0,0,0,1.77-.73,2.53,2.53,0,0,0,.73-1.77,2.57,2.57,0,0,0-.73-1.77,2.61,2.61,0,0,0-1.77-.73l-5.65.08a2.61,2.61,0,0,0-1.77.73,2.51,2.51,0,0,0,0,3.54,2.61,2.61,0,0,0,1.77.73Z" transform="translate(0 -3.31)"/><path class="cls-4" d="M362.68,289.12c3.22,0,3.22-5,0-5s-3.22,5,0,5Z" transform="translate(0 -3.31)"/><path class="cls-4" d="M360.18,286.62v.23a2.75,2.75,0,0,0,.73,1.77,2.05,2.05,0,0,0,.81.52,1.93,1.93,0,0,0,1,.21l.66-.09a2.53,2.53,0,0,0,1.11-.64l.39-.51a2.53,2.53,0,0,0,.34-1.26v-.23a1.9,1.9,0,0,0-.22-1,1.83,1.83,0,0,0-.51-.8,1.85,1.85,0,0,0-.81-.52,1.78,1.78,0,0,0-1-.21l-.67.09a2.41,2.41,0,0,0-1.1.64l-.39.5a2.44,2.44,0,0,0-.34,1.27Z" transform="translate(0 -3.31)"/><path class="cls-4" d="M353.51,286.2l0,.24,1.24-2.16h0l.59-.25h0L356,284h0l.66.09h0l.6.26h0a2,2,0,0,0-.93-.3,1.89,1.89,0,0,0-1,0,1.76,1.76,0,0,0-.85.45,1.8,1.8,0,0,0-.64.7l-.25.59a2.5,2.5,0,0,0,0,1.33l.25.6a2.56,2.56,0,0,0,.89.9h0l.59.26h0l.67.09h0l.67-.09h0l.3-.13.31-.13a2.53,2.53,0,0,0,.89-.89,2.47,2.47,0,0,0,.34-1.27l0-.24a1.88,1.88,0,0,0-.22-1,2.3,2.3,0,0,0-1.32-1.32,1.88,1.88,0,0,0-1-.22l-.67.09a2.52,2.52,0,0,0-1.1.65l-.39.5a2.43,2.43,0,0,0-.34,1.26Z" transform="translate(0 -3.31)"/><path class="cls-4" d="M355.91,290.23c3.22,0,3.23-5,0-5s-3.22,5,0,5Z" transform="translate(0 -3.31)"/><path class="cls-4" d="M353.76,288.94l.06.14.39.5a1.85,1.85,0,0,0,.8.52,1.29,1.29,0,0,0,.63.17,1.89,1.89,0,0,0,1,0l.6-.25.5-.39a1.82,1.82,0,0,0,.52-.8,1.9,1.9,0,0,0,.22-1v-.39l-.09-.67-.25-.6-.4-.5a1.77,1.77,0,0,0-.8-.52,1.24,1.24,0,0,0-.63-.17,1.27,1.27,0,0,0-.67,0,1.29,1.29,0,0,0-.63.17,1.82,1.82,0,0,0-.8.52h0l-.4.51h0v.05c0,.1-.1.23-.13.31s-.1.21-.14.31,0,0,0,.06h0l-.09.67h0v0a1.88,1.88,0,0,0,.22,1,2.3,2.3,0,0,0,1.32,1.32,1.88,1.88,0,0,0,1,.22l.67-.09a2.52,2.52,0,0,0,1.1-.65l.39-.5a2.43,2.43,0,0,0,.34-1.26s0,0,0,0l-.09.66a.24.24,0,0,1,0-.08l-.25.6,0-.08-.39.51h0l-4.26-1.76v.39l4.65-1.26-.05-.14a2,2,0,0,0-.65-.7,2.21,2.21,0,0,0-1.85-.49,1.85,1.85,0,0,0-.93.29l-.5.4a2.41,2.41,0,0,0-.64,1.1l-.09.66a2.47,2.47,0,0,0,.34,1.27Z" transform="translate(0 -3.31)"/><path class="cls-4" d="M355.44,289.08a5,5,0,0,1,.58,1l-.25-.59a4.67,4.67,0,0,1,.31,1.15L356,290s0,.08,0,.11l3.76-2.16-.21-.13.51.39a1.6,1.6,0,0,1-.26-.26l.39.51a1.74,1.74,0,0,1-.11-.18,1.83,1.83,0,0,0-.65-.7,1.89,1.89,0,0,0-.85-.45,1.86,1.86,0,0,0-1-.05,1.9,1.9,0,0,0-.93.3l-.51.39a2.5,2.5,0,0,0-.64,1.1l-.09.67a2.43,2.43,0,0,0,.34,1.26,3.8,3.8,0,0,0,1.48,1.47,2.5,2.5,0,0,0,2.52,0,2.48,2.48,0,0,0,.9-.89,2.57,2.57,0,0,0,.34-1.27,6.93,6.93,0,0,0-.39-1.86,7.33,7.33,0,0,0-.86-1.67,1.9,1.9,0,0,0-.65-.7,1.8,1.8,0,0,0-.85-.45,2.71,2.71,0,0,0-1.92.25l-.51.39a2.5,2.5,0,0,0-.64,1.1l-.09.67a2.43,2.43,0,0,0,.34,1.26Z" transform="translate(0 -3.31)"/><path class="cls-4" d="M353.5,286.94v.2a1.33,1.33,0,0,1,0,.2l.09-.66h0l.25-.59h0l.39-.5h0l.51-.39h0l.6-.25h0l.67-.09h0l.67.09h0l.6.26h0l.51.39h0l.39.5,0,0,.25.6s0,0,0,0l.09.67v-.06a2.69,2.69,0,0,0-.73-1.77,2.75,2.75,0,0,0-1.77-.73l-.66.09a2.39,2.39,0,0,0-1.11.64l-.39.5a2.57,2.57,0,0,0-.34,1.27v0a3.38,3.38,0,0,0,.1.71,2.07,2.07,0,0,0,.27.63,2.83,2.83,0,0,0,.39.52h0l.51.39a2.29,2.29,0,0,0,.62.27h0l.34.05a1.61,1.61,0,0,0,.35,0,2.42,2.42,0,0,0,1.28-.35,2.48,2.48,0,0,0,.91-.91,2.55,2.55,0,0,0,.35-1.29v-.4a2.75,2.75,0,0,0-.73-1.77,2.05,2.05,0,0,0-.81-.52,1.93,1.93,0,0,0-1-.21l-.66.09a2.53,2.53,0,0,0-1.11.64l-.39.51a2.53,2.53,0,0,0-.34,1.26Z" transform="translate(0 -3.31)"/><path class="cls-4" d="M311.45,288.59c-.13.24-.23.52-.33.76a1.22,1.22,0,0,0-.07.17,1.63,1.63,0,0,0-.08.37,1.89,1.89,0,0,0-.05,1,2.26,2.26,0,0,0,.94,1.63,1.94,1.94,0,0,0,.85.45l.67.09a2.54,2.54,0,0,0,1.26-.35l.5-.39a2.52,2.52,0,0,0,.65-1.1,1.67,1.67,0,0,1,.15-.54l-.25.59s.05-.1.07-.16a1.8,1.8,0,0,0,.3-.93,1.86,1.86,0,0,0-.05-1,1.78,1.78,0,0,0-.44-.85,1.9,1.9,0,0,0-.7-.65l-.6-.25a2.5,2.5,0,0,0-1.33,0l-.6.25a2.48,2.48,0,0,0-.89.9Z" transform="translate(0 -3.31)"/><path class="cls-4" d="M311.15,292.59l.05,1.54a2.83,2.83,0,0,0,.74,1.77,1.83,1.83,0,0,0,.8.51,1.88,1.88,0,0,0,1,.22l.67-.09a2.5,2.5,0,0,0,1.1-.64l.39-.51a2.43,2.43,0,0,0,.34-1.26l-.05-1.54a1.9,1.9,0,0,0-.22-1,1.82,1.82,0,0,0-.52-.8,1.77,1.77,0,0,0-.8-.52,1.88,1.88,0,0,0-1-.21l-.67.09a2.41,2.41,0,0,0-1.1.64l-.39.5a2.47,2.47,0,0,0-.34,1.27Z" transform="translate(0 -3.31)"/><path class="cls-4" d="M313.78,299.19c3.22,0,3.22-5,0-5s-3.22,5,0,5Z" transform="translate(0 -3.31)"/><circle class="cls-2" cx="166.18" cy="58.77" r="37.41"/><circle class="cls-5" cx="358.51" cy="58.77" r="37.41"/><path class="cls-4" d="M357.85,93.05A28.9,28.9,0,0,0,356,107.36a2.5,2.5,0,1,0,5,0,92,92,0,0,0,.21-11.74A2.51,2.51,0,0,0,359,93.17,2.49,2.49,0,0,0,356.3,95l-1.08,5.49,4.57-.59c-.1-.17-.2-.34-.29-.51s-.21-.46-.11-.23-.1-.31-.12-.36a5.12,5.12,0,0,1-.15-.56s-.11-.52-.06-.24,0-.3,0-.37a9,9,0,0,1,0-1.16A2.47,2.47,0,0,0,356.9,94a2.5,2.5,0,0,0-2.75,1.79,24.39,24.39,0,0,0-.7,5.51h5v-4.4a2.52,2.52,0,0,0-2.5-2.5,2.55,2.55,0,0,0-2.5,2.5v4.4a2.5,2.5,0,0,0,5,0A22.39,22.39,0,0,1,358.6,99c0,.27,0,0,0-.1l.09-.51q.12-.63.27-1.26l-4.91-.66a10,10,0,0,0,1.41,5.95,2.5,2.5,0,0,0,2.49,1.19,2.45,2.45,0,0,0,2.08-1.79l1.08-5.49-4.91-.67a92,92,0,0,1-.21,11.74h5a27.71,27.71,0,0,1,0-6.81c0-.18,0-.17,0,0,0-.17,0-.33.07-.5s.09-.48.14-.73c.11-.57.24-1.13.38-1.69a29.69,29.69,0,0,1,1.1-3.3,2.49,2.49,0,0,0-1.74-3.07,2.58,2.58,0,0,0-3.08,1.74Z" transform="translate(0 -3.31)"/><path class="cls-4" d="M358.53,94.1a22.91,22.91,0,0,0-.19,8.68l.25.6a1.9,1.9,0,0,0,.65.7,2.36,2.36,0,0,0,1.51.53,2.59,2.59,0,0,0,2.41-1.83,18.09,18.09,0,0,0,.91-6h-5l.15,3.2a2.5,2.5,0,0,0,4.66,1.27,12.74,12.74,0,0,0,1.59-5.81,2.5,2.5,0,1,0-5,0c0,.34,0,.68-.08,1l.09-.66a10.23,10.23,0,0,1-.71,2.6l.25-.6c-.14.32-.29.62-.45.92l4.65,1.26-.15-3.2a2.5,2.5,0,0,0-5,0,16.75,16.75,0,0,1-.13,2.35l.09-.66a16.73,16.73,0,0,1-.69,3h4.82l-.06-.41.09.66a21,21,0,0,1,0-5.43l-.09.67c.07-.51.16-1,.26-1.51a2.64,2.64,0,0,0-.25-1.93,2.5,2.5,0,0,0-4.57.6Z" transform="translate(0 -3.31)"/><polygon class="cls-2" points="59.37 338.03 65.78 330.94 52.95 330.94 59.37 338.03"/><polygon class="cls-6" points="306.29 289.94 313.38 296.03 313.38 283.85 306.29 289.94"/><path class="cls-4" d="M314.86,289.29h-.05a4.07,4.07,0,0,0-.7-.1,2.64,2.64,0,0,0-.74.1h0l-.6.26h0a2.47,2.47,0,0,0-.58.44,2.5,2.5,0,0,0-.64,1.1,1.89,1.89,0,0,0,0,1,1.85,1.85,0,0,0,.29.93,2.67,2.67,0,0,0,.9.9l.2.12.1.05.05,0,.65.27.22.07.11,0H314l.71.1a2.53,2.53,0,0,0,1.26-.34,1.85,1.85,0,0,0,.71-.65,1.78,1.78,0,0,0,.44-.85,2.5,2.5,0,0,0,0-1.33.86.86,0,0,1-.06-.23l.09.67a1.22,1.22,0,0,1,0-.27l-.09.66,0-.14a1.9,1.9,0,0,0,.05-1,2.26,2.26,0,0,0-.94-1.63,1.94,1.94,0,0,0-.85-.45l-.67-.09a2.53,2.53,0,0,0-1.26.34l-.51.39a2.53,2.53,0,0,0-.64,1.11,6.5,6.5,0,0,0-.12.82.91.91,0,0,0,0,.17,7.5,7.5,0,0,0,.11.81.84.84,0,0,0,.05.17l2.41-3.16h0l.67.08a1.66,1.66,0,0,1-.45-.12l.6.26a2.71,2.71,0,0,1-.37-.21l.51,3.92,0,0-.51.39.06,0-.59.25h.07l-.67.08h.08l-.67-.08h.06a2,2,0,0,0,1,.05,2,2,0,0,0,.93-.3,2.87,2.87,0,0,0,1.15-1.5l.08-.66a2.43,2.43,0,0,0-.34-1.26l-.39-.51a2.5,2.5,0,0,0-1.1-.64Z" transform="translate(0 -3.31)"/><path class="cls-4" d="M314.73,292.72h.12a2,2,0,0,0,1-.21,2.61,2.61,0,0,0,1.54-2.29l-.09-.66a2.55,2.55,0,0,0-.65-1.11l-.5-.39a2.53,2.53,0,0,0-1.26-.34h-.12a2.83,2.83,0,0,0-1.77.73,2,2,0,0,0-.52.81,1.88,1.88,0,0,0-.21,1l.09.67A2.5,2.5,0,0,0,313,292l.51.39a2.43,2.43,0,0,0,1.26.34Z" transform="translate(0 -3.31)"/><path class="cls-4" d="M315,292.43c3.22,0,3.22-5,0-5s-3.22,5,0,5Z" transform="translate(0 -3.31)"/><path class="cls-4" d="M314.73,292.49c3.21,0,3.22-5,0-5s-3.23,5,0,5Z" transform="translate(0 -3.31)"/><path class="cls-4" d="M313,292.48a8.36,8.36,0,0,0-.36.87c0,.1,0,.2-.07.3a4.56,4.56,0,0,0-.1,1.28,2.43,2.43,0,0,0,1.53,2.28,1.9,1.9,0,0,0,1,.22l.66-.09a2.52,2.52,0,0,0,1.1-.65l.39-.5a2.54,2.54,0,0,0,.35-1.26,2.44,2.44,0,0,1,0-.54l-.09.67a2.38,2.38,0,0,1,.16-.58l-.26.6a.3.3,0,0,0,0-.08,2,2,0,0,0,.3-.93,1.9,1.9,0,0,0-.05-1,1.94,1.94,0,0,0-.45-.85,1.88,1.88,0,0,0-.7-.64l-.59-.25a2.5,2.5,0,0,0-1.33,0l-.6.25a2.43,2.43,0,0,0-.9.9Z" transform="translate(0 -3.31)"/><path class="cls-4" d="M314.79,298.78c3.21,0,3.22-5,0-5s-3.23,5,0,5Z" transform="translate(0 -3.31)"/><path class="cls-4" d="M314.79,299.19c3.21,0,3.22-5,0-5s-3.23,5,0,5Z" transform="translate(0 -3.31)"/><line class="cls-7" x1="166.18" y1="96.18" x2="166.18" y2="147.08"/><line class="cls-7" x1="352.88" y1="147.08" x2="166.18" y2="147.08"/><circle class="cls-8" cx="166.73" cy="146.08" r="3.71"/><circle class="cls-8" cx="336.32" cy="147.08" r="3.71"/><circle class="cls-9" cx="166.73" cy="146.08" r="1.85"/><circle class="cls-9" cx="336.32" cy="147.08" r="1.85"/><line class="cls-10" x1="166.18" y1="150.79" x2="166.18" y2="158.61"/><line class="cls-10" x1="162.27" y1="159.61" x2="170.09" y2="159.61"/><line class="cls-10" x1="163.68" y1="161.56" x2="168.68" y2="161.56"/><line class="cls-10" x1="164.68" y1="163.5" x2="167.68" y2="163.5"/><path class="cls-2" d="M251.89,145.57a.26.26,0,0,1-.12.12l-.13,0h-.53l-.05,0a.08.08,0,0,1,0,0l0-.05-1.65-4.69a.5.5,0,0,1,0-.14.1.1,0,0,1,0-.08.23.23,0,0,1,.11,0h.39l.1,0,.05,0,0,.07,1.45,4.25h0l1.41-4.25s0-.05,0-.07l.06,0,.11,0h.38s.08,0,.09,0a.08.08,0,0,1,0,.08.44.44,0,0,1,0,.14Z" transform="translate(0 -3.31)"/><path class="cls-2" d="M257.2,145.41c0,.05,0,.09,0,.13l0,.08a.15.15,0,0,1,0,.06h-2.49a.29.29,0,0,1-.17-.06.26.26,0,0,1-.08-.21v-4.51a.26.26,0,0,1,.08-.21.29.29,0,0,1,.17-.06h2.46a.1.1,0,0,1,0,0,.29.29,0,0,1,0,.09.85.85,0,0,1,0,.26.19.19,0,0,1,0,.08.1.1,0,0,1,0,.05l-.06,0h-2v1.58h1.69l.06,0,0,0,0,.08v.25l0,.09,0,0h-1.75v1.81h2l.06,0a.11.11,0,0,1,0,0l0,.08S257.2,145.36,257.2,145.41Z" transform="translate(0 -3.31)"/><path class="cls-2" d="M262.11,145.41a.29.29,0,0,1,0,.14.47.47,0,0,1-.06.09l-.1.05h-.33a.5.5,0,0,1-.18,0,.37.37,0,0,1-.15-.08.69.69,0,0,1-.14-.15,1.83,1.83,0,0,1-.15-.25l-1.54-2.88c-.08-.14-.17-.3-.25-.46s-.16-.32-.23-.48h0c0,.19,0,.38,0,.58v3.63s0,0,0,0a.07.07,0,0,1-.05,0l-.1,0h-.33l-.1,0a.07.07,0,0,1-.05,0,.08.08,0,0,1,0,0v-4.66a.27.27,0,0,1,.09-.23.33.33,0,0,1,.19-.06h.33a.59.59,0,0,1,.2,0,.35.35,0,0,1,.14.06.51.51,0,0,1,.12.13,1.17,1.17,0,0,1,.12.2l1.19,2.22.21.39c.07.13.13.26.2.38l.18.37.19.37h0c0-.21,0-.42,0-.64v-3.39a.09.09,0,0,1,0-.05l.06,0,.1,0h.33l.1,0a.1.1,0,0,1,0,0s0,0,0,.05Z" transform="translate(0 -3.31)"/><path class="cls-2" d="M266.62,140.93a.53.53,0,0,1,0,.13.19.19,0,0,1,0,.08.11.11,0,0,1,0,.05l-.06,0h-1.42v4.38a.08.08,0,0,1,0,0,.1.1,0,0,1-.05,0l-.11,0h-.32l-.1,0a.09.09,0,0,1-.06,0,.07.07,0,0,1,0,0v-4.38H263l-.05,0a.07.07,0,0,1,0-.05s0,0,0-.08a.53.53,0,0,1,0-.13.49.49,0,0,1,0-.13.29.29,0,0,1,0-.1.1.1,0,0,1,0,0h3.63l0,0a.3.3,0,0,1,0,.1A.49.49,0,0,1,266.62,140.93Z" transform="translate(0 -3.31)"/><path class="cls-2" d="M168.91,6.64a4,4,0,0,1-.28,1.54,3.21,3.21,0,0,1-.8,1.17,3.72,3.72,0,0,1-1.29.75,5.67,5.67,0,0,1-1.81.26h-1.29v4.1a.25.25,0,0,1,0,.12.33.33,0,0,1-.13.09l-.22.05-.37,0-.36,0-.24-.05c-.06,0-.1-.05-.12-.09a.24.24,0,0,1,0-.12V4a.62.62,0,0,1,.18-.5.63.63,0,0,1,.41-.15H165c.24,0,.48,0,.71,0s.49.07.79.14a3.13,3.13,0,0,1,1.76,1.06,2.89,2.89,0,0,1,.51.93A3.68,3.68,0,0,1,168.91,6.64Zm-1.59.13a2.37,2.37,0,0,0-.26-1.16,1.82,1.82,0,0,0-.64-.7,2.16,2.16,0,0,0-.79-.29,5.49,5.49,0,0,0-.8-.06h-1.39V9.12h1.36A3.34,3.34,0,0,0,165.94,9a2.21,2.21,0,0,0,.76-.49,2.05,2.05,0,0,0,.46-.75A2.61,2.61,0,0,0,167.32,6.77Z" transform="translate(0 -3.31)"/><path class="cls-2" d="M175.74,12.31a2.45,2.45,0,0,1-.22,1.08,2.09,2.09,0,0,1-.64.8,2.75,2.75,0,0,1-1,.5,4.53,4.53,0,0,1-1.26.16,5.1,5.1,0,0,1-.8-.06,5,5,0,0,1-.69-.17,4.42,4.42,0,0,1-.51-.21,1.1,1.1,0,0,1-.31-.2.48.48,0,0,1-.14-.24,1.63,1.63,0,0,1-.05-.43,2.19,2.19,0,0,1,0-.29c0-.07,0-.13,0-.18a.21.21,0,0,1,.08-.1.2.2,0,0,1,.11,0,.67.67,0,0,1,.29.12c.12.08.28.16.46.26a4.78,4.78,0,0,0,.66.26,3.23,3.23,0,0,0,.87.11,2.3,2.3,0,0,0,.66-.08,1.55,1.55,0,0,0,.52-.23,1,1,0,0,0,.34-.39,1.25,1.25,0,0,0,.12-.56.93.93,0,0,0-.17-.56,1.78,1.78,0,0,0-.45-.41,3.46,3.46,0,0,0-.64-.31l-.72-.29a6.89,6.89,0,0,1-.73-.34,2.42,2.42,0,0,1-.64-.46,1.89,1.89,0,0,1-.45-.65,2.07,2.07,0,0,1-.17-.9,2.25,2.25,0,0,1,.18-.89,2,2,0,0,1,.54-.75,2.8,2.8,0,0,1,.9-.52,4,4,0,0,1,1.26-.19,4.46,4.46,0,0,1,.63,0,4,4,0,0,1,.57.14,2.7,2.7,0,0,1,.44.17,1.47,1.47,0,0,1,.27.16l.12.12a.61.61,0,0,1,.05.12.78.78,0,0,1,0,.16,1.66,1.66,0,0,1,0,.24,1.84,1.84,0,0,1,0,.26.48.48,0,0,1,0,.18.29.29,0,0,1-.07.1.19.19,0,0,1-.1,0,.52.52,0,0,1-.23-.09,2.29,2.29,0,0,0-.39-.21,5.37,5.37,0,0,0-.55-.21,2.78,2.78,0,0,0-.74-.09,2.18,2.18,0,0,0-.65.08,1.18,1.18,0,0,0-.46.24,1,1,0,0,0-.27.36,1.14,1.14,0,0,0-.09.46.88.88,0,0,0,.17.57,1.52,1.52,0,0,0,.46.41,3.47,3.47,0,0,0,.64.32l.73.29c.25.1.5.21.74.33a3.41,3.41,0,0,1,.65.45,2,2,0,0,1,.62,1.51Z" transform="translate(0 -3.31)"/><path class="cls-2" d="M361.38,6.64a4,4,0,0,1-.28,1.54,3.21,3.21,0,0,1-.8,1.17,3.76,3.76,0,0,1-1.28.75,5.78,5.78,0,0,1-1.82.26h-1.29v4.1a.25.25,0,0,1,0,.12.38.38,0,0,1-.12.09l-.23.05-.37,0-.36,0-.24-.05c-.05,0-.1-.05-.12-.09a.24.24,0,0,1,0-.12V4a.62.62,0,0,1,.18-.5.63.63,0,0,1,.41-.15h2.44c.24,0,.48,0,.71,0s.49.07.8.14a3.27,3.27,0,0,1,.94.37,3.19,3.19,0,0,1,.81.69,2.89,2.89,0,0,1,.51.93A3.68,3.68,0,0,1,361.38,6.64Zm-1.59.13a2.26,2.26,0,0,0-.26-1.16,1.82,1.82,0,0,0-.64-.7,2.16,2.16,0,0,0-.79-.29,5.46,5.46,0,0,0-.79-.06h-1.4V9.12h1.36A3.34,3.34,0,0,0,358.41,9a2.21,2.21,0,0,0,.76-.49,2.05,2.05,0,0,0,.46-.75A2.61,2.61,0,0,0,359.79,6.77Z" transform="translate(0 -3.31)"/><path class="cls-2" d="M367.75,13.89a2,2,0,0,1,0,.4.5.5,0,0,1-.1.22.69.69,0,0,1-.21.13,1.59,1.59,0,0,1-.33.1l-.38.07a2.69,2.69,0,0,1-.4,0,3.06,3.06,0,0,1-1.06-.17,1.66,1.66,0,0,1-.72-.49,2.09,2.09,0,0,1-.41-.83,5.26,5.26,0,0,1-.12-1.19V7.53h-1.11a.22.22,0,0,1-.21-.14,1,1,0,0,1-.08-.46,2.16,2.16,0,0,1,0-.28.53.53,0,0,1,.06-.19.22.22,0,0,1,.09-.1.28.28,0,0,1,.13,0H364V4.45a.21.21,0,0,1,.14-.21.94.94,0,0,1,.23-.06h.71a1,1,0,0,1,.22.06.35.35,0,0,1,.11.09.28.28,0,0,1,0,.12V6.33h2a.27.27,0,0,1,.12,0,.29.29,0,0,1,.09.1.53.53,0,0,1,.06.19,2.16,2.16,0,0,1,0,.28,1,1,0,0,1-.08.46.24.24,0,0,1-.21.14h-2v4.41a2.54,2.54,0,0,0,.24,1.24.91.91,0,0,0,.86.42,1.79,1.79,0,0,0,.36,0l.29-.09.21-.08a.31.31,0,0,1,.15,0l.09,0a.35.35,0,0,1,.06.09,1.23,1.23,0,0,1,0,.16A1.87,1.87,0,0,1,367.75,13.89Z" transform="translate(0 -3.31)"/></g></g></svg>