<svg xmlns="http://www.w3.org/2000/svg" viewBox="0 0 18.94 24.03"><defs><style>.cls-1{fill:#fff;}</style></defs><g id="Capa_2" data-name="Capa 2"><g id="Layer_1" data-name="Layer 1"><path class="cls-1" d="M17.09,24H1.84A1.85,1.85,0,0,1,0,22.18a8.84,8.84,0,0,1,8.83-8.83h1.28a8.84,8.84,0,0,1,8.83,8.83A1.85,1.85,0,0,1,17.09,24ZM2,22.06H17a6.87,6.87,0,0,0-6.86-6.74H8.83A6.87,6.87,0,0,0,2,22.06Z"/><path class="cls-1" d="M9.47,12.5a6.25,6.25,0,1,1,6.25-6.25A6.27,6.27,0,0,1,9.47,12.5ZM9.47,2a4.28,4.28,0,1,0,4.28,4.28A4.28,4.28,0,0,0,9.47,2Z"/></g></g></svg>